<?xml version="1.0" standalone="no"?>
<!DOCTYPE svg PUBLIC "-//W3C//DTD SVG 20010904//EN"
 "http://www.w3.org/TR/2001/REC-SVG-20010904/DTD/svg10.dtd">
<svg version="1.0" xmlns="http://www.w3.org/2000/svg"
 width="1662.000000pt" height="669.000000pt" viewBox="0 0 1662.000000 669.000000"
 preserveAspectRatio="xMidYMid meet">

<g transform="translate(0.000000,669.000000) scale(0.100000,-0.100000)"
fill="#000000" stroke="none">
<path d="M10706 5388 c-3 -12 -7 -58 -9 -101 -2 -42 -6 -79 -8 -81 -2 -3 -80
-15 -172 -27 -92 -13 -172 -26 -178 -29 -7 -5 -21 -212 -40 -586 -16 -318 -30
-592 -31 -607 -2 -18 -76 175 -206 541 -112 313 -207 573 -210 579 -4 5 -70
20 -147 34 l-140 24 -9 63 c-5 34 -12 62 -15 62 -13 0 -613 -139 -617 -143 -7
-7 -218 -3437 -211 -3443 5 -5 271 -53 298 -54 4 0 11 -35 15 -78 l9 -79 372
71 c204 39 374 74 377 77 3 3 13 230 21 505 9 274 16 504 18 511 1 7 89 -227
196 -520 107 -293 197 -536 201 -540 4 -5 68 9 141 31 74 22 135 39 136 38 1
-1 9 -66 18 -146 8 -79 17 -145 18 -146 2 -1 636 402 644 409 1 1 4 97 8 212
3 116 8 248 12 295 l6 85 33 -219 c19 -126 39 -223 45 -227 7 -4 75 -28 151
-54 76 -26 138 -52 138 -59 0 -6 7 -56 15 -111 8 -55 15 -103 15 -107 0 -5 7
-8 15 -8 13 0 688 150 691 154 1 0 -24 136 -56 301 -65 332 -116 632 -109 639
2 2 130 23 283 45 154 23 282 43 284 45 2 2 -24 108 -57 235 -34 127 -61 233
-61 236 0 3 -12 5 -26 5 -26 0 -26 1 -21 53 2 28 11 68 20 88 l16 35 66 -7
c36 -3 68 -8 70 -11 2 -2 22 -83 43 -179 l38 -174 27 2 c25 2 26 0 20 -25 -4
-15 -8 -169 -8 -342 0 -288 2 -324 23 -427 43 -215 103 -360 202 -491 173
-231 407 -335 750 -335 135 0 168 4 255 27 483 126 774 565 870 1316 19 147
33 690 18 690 -5 0 -131 -25 -279 -56 -148 -30 -282 -57 -299 -60 -85 -11
-134 -28 -137 -47 -2 -14 -42 -42 -124 -89 l-121 -69 -1 -168 c-1 -186 -12
-296 -43 -413 -21 -76 -69 -168 -89 -168 -5 0 -17 26 -27 58 -36 116 -16 508
40 821 l12 65 597 166 c328 91 599 168 602 171 3 3 -12 72 -34 154 -40 154
-40 167 1 180 10 4 19 11 19 17 0 21 -255 447 -268 448 -11 0 -624 -162 -660
-175 -10 -4 -12 3 -7 28 13 57 114 334 176 480 34 78 63 151 66 162 4 18 -15
25 -228 83 -128 34 -235 64 -237 66 -2 3 2 39 8 81 6 42 10 78 8 80 -2 2 -150
-33 -328 -78 l-325 -82 -29 -120 c-16 -66 -52 -217 -80 -334 l-52 -215 -23 88
c-88 333 -340 527 -736 566 -288 28 -545 -42 -733 -200 -131 -110 -257 -292
-324 -467 -17 -46 -33 -81 -36 -79 -2 2 1 147 7 321 6 175 9 321 6 325 -3 5
-125 99 -273 211 -147 111 -272 206 -279 211 -9 7 -14 3 -17 -14z m307 -407
l97 -73 0 -77 c0 -42 -5 -204 -10 -361 -5 -157 -21 -663 -35 -1125 -25 -834
-28 -945 -41 -1311 l-7 -190 -174 -112 c-104 -67 -175 -106 -178 -99 -1 7 -13
109 -24 227 -24 241 -32 303 -37 297 -2 -1 -8 -75 -14 -162 -6 -87 -12 -160
-14 -162 -11 -11 -249 -73 -255 -66 -8 8 -458 1234 -468 1273 -4 16 -2 19 11
14 21 -8 86 4 86 16 0 6 -26 10 -57 10 l-58 0 -69 193 c-38 105 -73 196 -78
201 -4 6 -8 -12 -8 -40 0 -27 -7 -267 -15 -534 -8 -267 -17 -573 -20 -680 -3
-107 -8 -259 -11 -336 l-6 -142 -187 -35 c-102 -20 -202 -39 -222 -42 l-36 -7
-7 149 c-9 219 -18 344 -23 339 -3 -3 -62 -345 -63 -367 0 -3 -46 2 -102 11
-88 14 -103 19 -105 35 -4 33 192 3154 199 3160 10 10 310 76 323 72 6 -3 22
-73 35 -156 13 -83 26 -151 30 -151 3 0 13 50 22 111 9 61 18 112 20 114 6 6
209 -32 217 -41 5 -5 102 -270 216 -589 114 -319 222 -620 240 -670 18 -49 70
-196 116 -325 82 -231 84 -234 90 -190 4 25 27 447 50 938 24 491 46 898 50
903 5 9 259 50 267 44 2 -2 14 -98 27 -215 22 -191 35 -266 35 -199 0 13 7
116 15 229 8 113 15 213 15 224 0 17 3 16 33 -6 17 -14 76 -57 130 -97z m2717
47 c0 -7 -13 -92 -29 -188 -16 -96 -27 -177 -24 -180 3 -3 7 0 9 5 2 6 43 69
92 141 l87 131 145 -39 c80 -22 146 -41 148 -42 1 -2 -22 -66 -52 -142 -76
-196 -225 -659 -215 -668 3 -3 187 44 409 105 223 60 412 109 421 109 10 0 38
-38 72 -96 32 -53 57 -99 57 -103 0 -3 -75 -51 -166 -106 -92 -54 -163 -100
-158 -102 5 -2 81 10 170 25 l161 27 17 -68 c10 -38 16 -70 14 -73 -3 -2 -259
-74 -569 -160 -310 -85 -568 -159 -572 -163 -9 -9 -47 -225 -73 -421 -26 -191
-26 -538 -1 -630 37 -132 88 -184 179 -183 180 2 287 238 305 670 l6 152 68
40 68 39 48 -92 48 -91 5 119 5 120 189 38 c117 24 192 36 198 30 14 -14 -8
-402 -32 -557 -62 -420 -212 -746 -422 -923 -72 -61 -213 -134 -308 -159 -93
-26 -367 -25 -465 1 -300 78 -483 308 -550 691 -33 187 -29 540 9 853 6 56 11
104 9 106 -2 2 -27 -3 -54 -11 -28 -8 -53 -13 -56 -10 -10 11 -43 181 -36 188
5 3 40 17 78 29 39 12 74 26 79 30 6 6 -83 20 -158 24 -5 1 -16 21 -24 45
l-15 44 -17 -23 c-16 -21 -22 -22 -86 -16 -38 4 -88 9 -111 13 l-42 5 -3 137
c-3 121 -4 133 -16 106 -7 -16 -36 -87 -65 -157 -29 -70 -56 -128 -62 -128 -8
0 -183 68 -194 76 -2 2 17 54 42 116 89 221 111 381 64 463 -49 87 -186 118
-292 65 -40 -20 -55 -36 -82 -85 -39 -72 -70 -201 -83 -350 -9 -103 -6 -383 6
-521 l5 -61 57 13 c31 8 125 30 207 49 83 20 162 38 178 42 l27 6 0 -107 0
-107 -60 -27 c-32 -15 -59 -30 -60 -34 0 -5 46 -8 103 -8 l102 0 22 -82 c12
-46 19 -86 15 -89 -4 -3 -127 -23 -274 -44 -262 -38 -268 -39 -268 -61 0 -66
43 -333 110 -684 22 -113 41 -216 42 -229 3 -24 -2 -26 -182 -67 -102 -23
-186 -41 -187 -40 -2 1 -16 101 -33 222 -17 120 -32 224 -34 229 -3 11 -56
-205 -56 -230 0 -8 -6 -15 -12 -15 -17 0 -159 48 -177 59 -16 10 -30 92 -75
446 -47 363 -59 539 -59 865 0 301 15 479 59 700 100 500 339 805 684 875 105
21 357 16 460 -10 151 -37 284 -129 362 -249 115 -177 135 -489 53 -805 -8
-33 -15 -61 -15 -64 0 -5 39 5 195 48 l50 14 28 128 c35 159 214 904 230 958
l12 39 145 37 c167 43 170 43 170 27z m-1517 -993 c-2 -74 -47 -217 -107 -340
l-44 -90 -1 100 c-1 124 22 279 50 346 22 49 22 50 63 47 l41 -3 -2 -60z m-88
-564 l40 -18 -40 -12 c-59 -16 -65 -14 -65 19 0 34 9 36 65 11z"/>
<path d="M2755 5315 c-250 -44 -438 -147 -646 -355 -217 -217 -362 -474 -457
-815 -78 -276 -107 -515 -99 -815 10 -368 72 -651 203 -929 167 -353 455 -626
774 -734 150 -51 229 -62 445 -62 220 0 290 10 458 67 399 133 719 465 878
910 20 55 35 85 40 76 4 -7 103 -256 220 -553 116 -297 213 -541 214 -542 1
-2 502 -33 536 -33 13 0 20 17 30 66 10 50 18 68 34 74 11 4 88 22 170 40 83
18 153 35 157 39 6 5 190 604 614 1999 14 45 30 82 35 82 6 0 81 44 167 97
403 249 742 378 951 360 149 -12 208 -79 231 -260 53 -429 -291 -845 -985
-1187 -154 -76 -349 -159 -481 -205 -1 0 -16 -135 -33 -300 -17 -165 -34 -317
-37 -337 l-6 -37 59 -3 58 -3 20 -132 c12 -73 24 -135 28 -139 8 -8 2200 77
2210 87 10 8 86 587 79 594 -3 3 -22 5 -43 5 -44 0 -38 -14 -69 164 -11 66
-23 123 -26 128 -3 4 -102 8 -221 8 l-216 0 84 88 c200 207 317 402 404 666
65 200 80 297 80 521 -1 492 -125 844 -384 1087 -119 113 -255 180 -451 224
-92 21 -360 24 -470 6 -170 -29 -433 -107 -623 -186 -71 -29 -344 -161 -355
-171 -3 -3 35 -305 43 -343 4 -18 -1 -26 -26 -40 -77 -42 -73 -15 -39 -306 16
-143 28 -261 26 -263 -2 -3 -94 26 -204 64 l-201 68 2 34 2 35 -274 58 c-151
32 -275 57 -276 55 -1 -1 -50 -258 -109 -572 -59 -313 -109 -571 -110 -572 -1
-1 -102 291 -225 650 -123 359 -225 653 -226 655 -2 2 -78 -35 -170 -83 -91
-48 -167 -86 -169 -84 -1 2 -17 39 -35 81 -81 190 -230 405 -392 568 -205 207
-432 332 -714 395 -100 23 -378 28 -480 10z m385 -159 c231 -35 440 -131 618
-285 188 -162 373 -428 471 -677 l19 -51 -76 -64 -76 -64 104 -5 104 -5 75
-122 c41 -67 77 -120 79 -118 3 2 -53 229 -74 297 -4 14 20 30 116 78 l120 60
11 -27 c12 -31 149 -431 404 -1178 92 -269 171 -493 174 -497 4 -4 19 61 35
145 34 188 47 256 90 477 18 96 67 351 107 566 l73 391 121 -25 122 -25 -23
-131 c-13 -71 -22 -132 -20 -134 3 -2 32 37 65 87 34 50 65 91 70 91 12 0 320
-106 326 -112 3 -2 -25 -101 -61 -219 -36 -118 -94 -308 -129 -424 -259 -853
-396 -1299 -398 -1300 -4 -3 -292 -65 -299 -65 -4 0 -9 48 -10 108 l-3 107
-34 -167 -34 -167 -116 6 c-64 3 -134 8 -155 12 l-40 6 -193 490 c-368 930
-526 1331 -619 1563 -91 230 -92 232 -67 232 17 0 23 4 20 14 -8 21 -129 188
-133 184 -2 -3 10 -55 27 -117 16 -62 29 -114 27 -116 -2 -1 -58 -38 -124 -83
l-122 -81 -30 85 c-42 118 -93 204 -165 280 -169 182 -333 252 -557 240 -97
-5 -111 -8 -186 -45 -261 -130 -434 -529 -434 -1005 0 -199 60 -443 145 -588
59 -100 160 -207 233 -246 152 -81 355 -82 510 -3 70 37 178 130 237 205 50
65 124 197 150 271 10 28 20 51 21 53 2 3 184 -86 193 -94 7 -6 -19 -80 -120
-344 -12 -31 47 31 124 132 l51 67 141 -74 c112 -60 140 -78 138 -94 -4 -35
-80 -201 -130 -282 -190 -312 -459 -509 -793 -582 -137 -30 -407 -30 -537 1
-327 75 -590 288 -770 622 -163 302 -246 759 -214 1175 58 726 363 1280 825
1495 175 82 380 108 596 76z m4628 -65 c139 -29 332 -128 381 -196 11 -16 41
-55 66 -85 58 -70 137 -231 169 -340 55 -194 82 -459 66 -653 -41 -500 -307
-916 -792 -1240 l-96 -64 391 -7 c216 -4 393 -9 395 -11 7 -6 34 -176 29 -181
-3 -3 -69 -14 -147 -24 -79 -11 -145 -22 -148 -25 -3 -3 -1 -5 4 -5 32 -1 347
-40 351 -44 3 -3 -3 -71 -13 -151 l-18 -145 -48 0 c-27 0 -446 -16 -931 -35
-485 -20 -900 -35 -922 -33 l-40 3 -12 80 c-7 44 -11 85 -9 90 2 6 58 24 125
40 66 16 121 32 121 36 0 4 -74 8 -164 11 -91 2 -167 6 -169 8 -2 3 5 93 16
200 l20 195 126 50 c178 69 463 215 616 316 443 291 684 595 736 932 14 86 6
260 -15 336 -37 134 -115 229 -226 274 -48 19 -73 22 -200 22 -127 0 -157 -4
-243 -28 -183 -50 -434 -162 -621 -276 -38 -23 -71 -40 -73 -37 -6 6 -33 221
-33 261 0 28 8 34 119 95 67 36 115 68 109 72 -7 3 -37 9 -68 13 -31 4 -62 10
-68 14 -10 6 -42 191 -42 241 0 12 38 34 123 73 257 118 490 192 727 230 14 2
90 5 170 6 108 0 169 -4 238 -18z m-4602 -862 c70 -22 166 -90 238 -170 65
-73 128 -208 166 -359 17 -69 33 -131 35 -137 3 -8 58 23 149 82 80 52 150 96
157 97 10 3 392 -942 384 -950 -2 -2 -69 31 -149 73 l-145 76 19 49 19 49
-245 126 c-135 70 -247 125 -250 123 -2 -2 -22 -58 -45 -124 -73 -213 -148
-335 -267 -435 -71 -59 -105 -76 -184 -89 -81 -14 -177 -2 -243 30 -102 50
-222 231 -265 403 -70 281 -35 659 85 897 58 117 145 219 216 255 72 38 209
39 325 4z"/>
</g>
</svg>
